<?xml version="1.0" standalone="no"?>
<!DOCTYPE svg PUBLIC "-//W3C//DTD SVG 20010904//EN"
 "http://www.w3.org/TR/2001/REC-SVG-20010904/DTD/svg10.dtd">
<svg version="1.0" xmlns="http://www.w3.org/2000/svg"
 width="103.000000pt" height="103.000000pt" viewBox="0 0 103.000000 103.000000"
 preserveAspectRatio="xMidYMid meet">
<metadata>
Created by potrace 1.14, written by Peter Selinger 2001-2017
</metadata>
<g transform="translate(0.000000,103.000000) scale(0.100000,-0.100000)"
fill="#000000" stroke="none">
<path d="M411 1011 c-15 -9 -8 -41 8 -41 15 0 23 18 14 34 -5 10 -13 12 -22 7z"/>
<path d="M475 1009 c-8 -12 0 -22 20 -25 9 -1 15 6 15 17 0 20 -24 26 -35 8z"/>
<path d="M546 1005 c-3 -9 1 -18 10 -22 20 -7 38 18 21 29 -18 11 -24 10 -31
-7z"/>
<path d="M620 990 c0 -10 7 -20 15 -24 8 -3 15 -4 15 -2 0 3 3 11 6 19 3 9 -3
16 -15 20 -16 4 -21 0 -21 -13z"/>
<path d="M336 987 c-15 -11 -16 -15 -4 -24 19 -16 43 0 31 21 -7 14 -12 14
-27 3z"/>
<path d="M687 966 c-7 -17 22 -31 36 -17 5 5 6 14 3 20 -10 16 -33 14 -39 -3z"/>
<path d="M271 960 c-19 -11 -6 -41 14 -34 16 6 20 29 7 38 -4 2 -14 1 -21 -4z"/>
<path d="M756 933 c-8 -19 14 -37 28 -23 10 10 1 40 -13 40 -5 0 -12 -8 -15
-17z"/>
<path d="M202 917 c-16 -19 7 -40 28 -27 13 8 13 11 -1 25 -13 14 -17 14 -27
2z"/>
<path d="M815 893 c-7 -19 9 -38 24 -29 16 10 14 33 -3 39 -8 3 -17 -1 -21
-10z"/>
<path d="M143 864 c-7 -18 17 -38 31 -24 11 11 1 40 -14 40 -6 0 -13 -7 -17
-16z"/>
<path d="M872 848 c-10 -10 -6 -38 7 -38 3 0 12 4 20 9 12 8 12 11 -1 24 -11
11 -18 13 -26 5z"/>
<path d="M638 810 c-14 -11 -43 -54 -63 -95 l-38 -76 -51 6 c-69 7 -127 13
-216 21 -41 3 -79 7 -84 8 -5 0 -12 -11 -16 -25 -8 -26 -7 -27 143 -73 83 -26
153 -49 155 -51 3 -3 -14 -43 -38 -89 l-43 -84 -59 -12 c-39 -9 -62 -19 -69
-32 -14 -25 -13 -26 41 -29 25 -1 55 -8 67 -16 12 -7 28 -13 35 -13 7 -1 28
-22 47 -47 30 -41 35 -44 46 -29 11 14 9 28 -7 79 l-20 62 40 69 c23 38 46 74
51 79 7 7 50 -23 132 -93 l121 -103 20 21 20 20 -111 140 -112 141 46 85 c44
80 51 113 32 144 -12 18 -41 15 -69 -8z"/>
<path d="M94 809 c-3 -6 -1 -16 4 -21 13 -13 45 8 36 23 -7 12 -31 11 -40 -2z"/>
<path d="M912 781 c-10 -6 -10 -10 3 -21 18 -15 42 0 31 19 -8 13 -16 14 -34
2z"/>
<path d="M56 745 c-3 -9 1 -18 10 -22 20 -7 38 18 21 29 -18 11 -24 10 -31 -7z"/>
<path d="M951 721 c-16 -10 -6 -31 15 -31 8 0 14 9 14 20 0 22 -7 25 -29 11z"/>
<path d="M26 675 c-7 -20 23 -33 34 -14 5 7 6 17 4 21 -9 13 -32 9 -38 -7z"/>
<path d="M977 653 c-14 -13 -6 -33 13 -33 22 0 23 1 14 24 -7 17 -16 20 -27 9z"/>
<path d="M10 600 c0 -23 25 -27 33 -6 7 16 -1 26 -20 26 -7 0 -13 -9 -13 -20z"/>
<path d="M993 583 c-21 -7 -15 -33 7 -33 11 0 20 6 20 14 0 18 -11 25 -27 19z"/>
<path d="M0 530 c0 -18 23 -34 34 -23 12 13 5 31 -14 36 -15 4 -20 0 -20 -13z"/>
<path d="M986 495 c-7 -20 23 -33 34 -14 5 7 6 17 4 21 -9 13 -32 9 -38 -7z"/>
<path d="M0 463 c0 -17 19 -35 29 -29 18 12 12 36 -9 36 -11 0 -20 -3 -20 -7z"/>
<path d="M977 420 c-3 -12 2 -20 14 -23 12 -3 19 0 19 9 0 8 1 17 3 21 1 3 -5
7 -15 9 -9 1 -18 -6 -21 -16z"/>
<path d="M16 392 c-2 -4 -1 -14 4 -21 11 -19 41 -6 34 14 -6 16 -29 20 -38 7z"/>
<path d="M963 354 c-7 -20 18 -38 29 -21 11 18 10 24 -7 31 -9 3 -18 -1 -22
-10z"/>
<path d="M44 319 c-10 -17 13 -36 27 -22 12 12 4 33 -11 33 -5 0 -12 -5 -16
-11z"/>
<path d="M930 285 c-10 -12 -9 -16 5 -21 19 -8 40 9 31 25 -10 15 -21 14 -36
-4z"/>
<path d="M80 260 c-13 -8 -13 -11 1 -25 13 -14 17 -14 27 -2 16 19 -7 40 -28
27z"/>
<path d="M894 225 c-9 -22 5 -38 22 -24 18 15 18 25 -1 33 -9 3 -18 -1 -21 -9z"/>
<path d="M123 194 c-9 -23 11 -38 26 -20 13 16 7 36 -10 36 -5 0 -12 -7 -16
-16z"/>
<path d="M844 169 c-10 -17 13 -36 27 -22 12 12 4 33 -11 33 -5 0 -12 -5 -16
-11z"/>
<path d="M176 143 c-10 -25 11 -40 29 -22 13 13 12 16 -4 26 -16 10 -20 9 -25
-4z"/>
<path d="M790 125 c-20 -24 4 -45 26 -24 13 14 13 17 1 27 -11 10 -17 9 -27
-3z"/>
<path d="M234 99 c-10 -17 13 -36 27 -22 12 12 4 33 -11 33 -5 0 -12 -5 -16
-11z"/>
<path d="M730 85 c-17 -20 0 -41 24 -28 14 7 14 12 3 27 -12 16 -14 17 -27 1z"/>
<path d="M300 60 c-9 -17 -7 -20 9 -20 23 0 35 26 16 34 -8 3 -19 -3 -25 -14z"/>
<path d="M367 40 c-4 -15 0 -20 13 -20 27 0 34 17 11 29 -15 9 -20 7 -24 -9z"/>
<path d="M656 52 c-2 -4 -1 -14 3 -20 10 -17 41 -4 34 14 -6 15 -29 19 -37 6z"/>
<path d="M598 43 c-24 -6 -23 -23 2 -23 11 0 20 7 20 15 0 8 -1 14 -2 14 -2
-1 -11 -3 -20 -6z"/>
<path d="M440 29 c0 -5 10 -9 22 -9 12 0 18 3 14 7 -10 11 -36 12 -36 2z"/>
<path d="M520 30 c-12 -8 -10 -10 8 -10 13 0 20 4 17 10 -7 12 -6 12 -25 0z"/>
</g>
</svg>
